<?xml version="1.0" standalone="no"?>
<!DOCTYPE svg PUBLIC "-//W3C//DTD SVG 20010904//EN"
 "http://www.w3.org/TR/2001/REC-SVG-20010904/DTD/svg10.dtd">
<svg version="1.0" xmlns="http://www.w3.org/2000/svg"
 width="205.000000pt" height="205.000000pt" viewBox="0 0 205.000000 205.000000"
 preserveAspectRatio="xMidYMid meet">
<metadata>
Created by potrace 1.11, written by Peter Selinger 2001-2013
</metadata>
<g transform="translate(0.000000,205.000000) scale(0.100000,-0.100000)"
fill="#000000" stroke="none">
<path d="M819 1892 c-114 -73 -177 -225 -135 -326 l16 -38 -41 -46 c-86 -98
-205 -304 -234 -406 -41 -142 14 -294 133 -367 17 -12 32 -24 32 -28 0 -4 -19
-13 -42 -20 -75 -22 -108 -68 -108 -150 0 -42 5 -56 30 -84 27 -31 30 -41 30
-103 -1 -38 -7 -87 -15 -109 -16 -44 -13 -54 10 -35 10 8 15 9 15 1 0 -7 26
-11 75 -11 l75 0 0 69 c0 46 5 72 14 80 22 18 38 -12 44 -84 l5 -65 333 0 334
0 0 38 1 37 20 -38 19 -37 80 0 80 0 -30 59 c-16 33 -37 87 -46 120 -17 60
-17 62 3 84 33 35 43 62 43 112 0 53 -16 89 -57 126 -32 30 -85 59 -108 59
-17 0 -20 16 -5 25 6 4 22 30 37 58 34 69 43 193 19 287 -20 80 -71 189 -124
267 -56 82 -173 198 -237 234 -50 28 -53 32 -44 55 5 14 9 51 9 83 0 148 -117
225 -231 153z m21 -41 c0 -10 -30 -24 -37 -17 -3 3 -2 9 2 15 8 13 35 15 35 2z
m-50 -36 c0 -3 -16 -22 -36 -42 -28 -27 -34 -40 -29 -57 15 -44 6 -101 -12
-82 -25 24 14 165 49 179 18 7 28 8 28 2z m-20 -75 c0 -5 -4 -10 -10 -10 -5 0
-10 5 -10 10 0 6 5 10 10 10 6 0 10 -4 10 -10z m284 -369 c38 -36 35 -78 -6
-96 -44 -18 -227 -46 -310 -48 -72 -1 -89 7 -108 54 -11 25 -10 32 5 49 37 41
168 69 307 67 76 -2 89 -5 112 -26z m-507 -118 c-59 -116 -83 -262 -57 -353 6
-21 30 -56 59 -84 34 -33 47 -54 44 -67 -5 -17 -8 -17 -33 -4 -35 18 -78 69
-101 120 -25 53 -25 156 0 226 23 67 100 223 107 216 3 -3 -6 -27 -19 -54z
m333 -299 c0 -48 -3 -65 -12 -62 -19 7 -38 49 -38 84 0 35 6 44 32 44 16 0 18
-9 18 -66z m73 19 c6 -58 -6 -85 -36 -81 -19 3 -22 10 -25 52 -4 62 2 76 31
76 22 0 25 -6 30 -47z m-297 -270 c-8 -9 -46 18 -40 28 4 6 13 4 25 -7 11 -9
17 -19 15 -21z m44 -303 c0 -22 -20 -26 -38 -8 -19 19 -14 28 13 28 18 0 25
-5 25 -20z m-180 -177 c-10 -16 -11 -15 -6 7 3 14 6 34 7 45 1 13 3 11 6 -7 2
-15 -1 -35 -7 -45z"/>
</g>
</svg>
